<svg xmlns="http://www.w3.org/2000/svg" viewBox="0 0 1800 1800">

    <path fill="#9266CC"
        d="M 450 778.05 c 0 -200 100 -400 0 -500 s -150 100 -100 100 c 70.7 0 100 100 50 250 s 50 199.95 50 150 z m -193.75 0 c 0 -200 100 -400 0 -500 s -150 100 -100 100 c 70.7 0 100 100 50 250 s 50 199.95 50 150 z" />
    <path fill="#AA8DD8"
        d="M 1800 1746.8 c 0 50 -50 50 -100 50 H 550 c -250 0 -363.6 -154.5 -400 -300 c -50 -200 100 -550 0 -600 s -150 -50 -150 -150 s 223.5 -263.25 350 -200 c 200 100 138.35 346.6 100 500 c -44 176.1 55.75 179.7 250 250 c 247 89.35 616 222 700 250 c 150 50 400 150 400 200 z" />

    <g id="python" transform="translate(495,495)">
        <path fill="#5a9fd4"
            d="M 604.1066 0.0101 C 553.6865 0.2444 505.5363 4.5445 463.1691 12.0414 C 338.3608 34.0909 315.7004 80.2425 315.7004 165.3539 v 112.4063 h 294.9375 v 37.4688 h -294.9375 h -110.6875 c -85.717 0 -160.7733 51.5209 -184.25 149.5313 c -27.08 112.3426 -28.2812 182.4463 0 299.75 c 20.9652 87.3164 71.033 149.5312 156.75 149.5313 h 101.4063 v -134.75 c 0 -97.3489 84.2286 -183.2187 184.25 -183.2188 h 294.5938 c 82.0045 0 147.4688 -67.5198 147.4688 -149.875 v -280.8438 c 0 -79.9297 -67.4298 -139.9725 -147.4688 -153.3125 C 707.097 3.6074 654.5268 -0.2242 604.1066 0.0101 Z m -159.5 90.4063 c 30.465 0 55.3438 25.2851 55.3438 56.375 c -0 30.9797 -24.8787 56.0313 -55.3438 56.0313 c -30.5742 -0 -55.3438 -25.0516 -55.3438 -56.0313 c -0 -31.0899 24.7695 -56.375 55.3438 -56.375 z" />
        <path fill="#ffd43b"
            d="m 942.0129 315.2289 v 130.9688 c 0 101.5383 -86.0848 187 -184.25 187 h -294.5938 c -80.6942 0 -147.4687 69.0633 -147.4688 149.875 v 280.8437 c 0 79.9298 69.5045 126.9436 147.4688 149.875 c 93.3606 27.4517 182.8886 32.4129 294.5938 0 c 74.2517 -21.4983 147.4688 -64.7637 147.4688 -149.875 V 951.5101 h -294.5938 v -37.4688 h 294.5938 h 147.4688 c 85.7171 0 117.6588 -59.7895 147.4687 -149.5313 c 30.7926 -92.3877 29.4824 -181.2335 0 -299.75 c -21.1836 -85.3319 -61.6426 -149.5313 -147.4687 -149.5313 z m -165.6875 711.2188 c 30.5743 0 55.3438 25.0516 55.3438 56.0312 c -0 31.0899 -24.7695 56.375 -55.3438 56.375 c -30.4651 0 -55.3438 -25.2851 -55.3438 -56.375 c 0 -30.9796 24.8787 -56.0312 55.3438 -56.0312 z" />
    </g>
</svg>