<?xml version="1.0" encoding="UTF-8" standalone="no"?>
<!DOCTYPE svg PUBLIC "-//W3C//DTD SVG 1.1//EN"
 "http://www.w3.org/Graphics/SVG/1.1/DTD/svg11.dtd">
<!-- Generated by graphviz version 8.0.5 (0)
 -->
<!-- Title: classes Pages: 1 -->
<svg width="6089pt" height="388pt"
 viewBox="0.00 0.00 6089.38 387.50" xmlns="http://www.w3.org/2000/svg" xmlns:xlink="http://www.w3.org/1999/xlink">
<g id="graph0" class="graph" transform="scale(1 1) rotate(0) translate(4 383.5)">
<title>classes</title>
<polygon fill="white" stroke="none" points="-4,4 -4,-383.5 6085.38,-383.5 6085.38,4 -4,4"/>
<!-- abc.ABC -->
<g id="node1" class="node">
<title>abc.ABC</title>
<polygon fill="grey" stroke="grey" points="71.5,-90 71.5,-126 137.75,-126 137.75,-90 71.5,-90"/>
<text text-anchor="middle" x="104.62" y="-102.95" font-family="Times,serif" font-size="14.00">abc.ABC</text>
</g>
<!-- click.core.BaseCommand -->
<g id="node2" class="node">
<title>click.core.BaseCommand</title>
<polygon fill="coral" stroke="coral" points="388.12,-343 388.12,-379 545.12,-379 545.12,-343 388.12,-343"/>
<text text-anchor="middle" x="466.62" y="-355.95" font-family="Times,serif" font-size="14.00">click.core.BaseCommand</text>
</g>
<!-- click.core.Command -->
<g id="node3" class="node">
<title>click.core.Command</title>
<polygon fill="coral" stroke="coral" points="401.25,-269 401.25,-305 532,-305 532,-269 401.25,-269"/>
<text text-anchor="middle" x="466.62" y="-281.95" font-family="Times,serif" font-size="14.00">click.core.Command</text>
</g>
<!-- click.core.Command&#45;&gt;click.core.BaseCommand -->
<g id="edge1" class="edge">
<title>click.core.Command&#45;&gt;click.core.BaseCommand</title>
<path fill="none" stroke="black" d="M466.62,-304.7C466.62,-312.97 466.62,-323.17 466.62,-332.54"/>
<polygon fill="none" stroke="black" points="463.13,-332.39 466.62,-342.39 470.13,-332.39 463.13,-332.39"/>
</g>
<!-- click.core.Group -->
<g id="node4" class="node">
<title>click.core.Group</title>
<polygon fill="coral" stroke="coral" points="412.88,-90 412.88,-126 520.38,-126 520.38,-90 412.88,-90"/>
<text text-anchor="middle" x="466.62" y="-102.95" font-family="Times,serif" font-size="14.00">click.core.Group</text>
</g>
<!-- click.core.MultiCommand -->
<g id="node5" class="node">
<title>click.core.MultiCommand</title>
<polygon fill="coral" stroke="coral" points="385.88,-179.5 385.88,-215.5 547.38,-215.5 547.38,-179.5 385.88,-179.5"/>
<text text-anchor="middle" x="466.62" y="-192.45" font-family="Times,serif" font-size="14.00">click.core.MultiCommand</text>
</g>
<!-- click.core.Group&#45;&gt;click.core.MultiCommand -->
<g id="edge2" class="edge">
<title>click.core.Group&#45;&gt;click.core.MultiCommand</title>
<path fill="none" stroke="black" d="M466.62,-125.87C466.62,-138.1 466.62,-154.9 466.62,-169.04"/>
<polygon fill="none" stroke="black" points="463.13,-168.68 466.62,-178.68 470.13,-168.68 463.13,-168.68"/>
</g>
<!-- click.core.MultiCommand&#45;&gt;click.core.Command -->
<g id="edge3" class="edge">
<title>click.core.MultiCommand&#45;&gt;click.core.Command</title>
<path fill="none" stroke="black" d="M466.62,-215.37C466.62,-227.6 466.62,-244.4 466.62,-258.54"/>
<polygon fill="none" stroke="black" points="463.13,-258.18 466.62,-268.18 470.13,-258.18 463.13,-258.18"/>
</g>
<!-- click.types.ParamType -->
<g id="node6" class="node">
<title>click.types.ParamType</title>
<polygon fill="coral" stroke="coral" points="161.38,-90 161.38,-126 301.88,-126 301.88,-90 161.38,-90"/>
<text text-anchor="middle" x="231.62" y="-102.95" font-family="Times,serif" font-size="14.00">click.types.ParamType</text>
</g>
<!-- jinja2.environment.Environment -->
<g id="node7" class="node">
<title>jinja2.environment.Environment</title>
<polygon fill="cornflowerblue" stroke="cornflowerblue" points="843.38,-179.5 843.38,-215.5 1037.88,-215.5 1037.88,-179.5 843.38,-179.5"/>
<text text-anchor="middle" x="940.62" y="-192.45" font-family="Times,serif" font-size="14.00">jinja2.environment.Environment</text>
</g>
<!-- jinja2.environment.Environment&#45;&gt;jinja2.environment.Environment -->
<g id="edge37" class="edge">
<title>jinja2.environment.Environment&#45;&gt;jinja2.environment.Environment</title>
<path fill="none" stroke="black" d="M1037.74,-190.39C1048.74,-191.72 1055.88,-194.09 1055.88,-197.5 1055.88,-199.31 1053.86,-200.83 1050.32,-202.05"/>
<polygon fill="none" stroke="black" points="1050.38,-202.04 1045.3,-207.16 1038.62,-204.43 1043.7,-199.32 1050.38,-202.04"/>
<text text-anchor="middle" x="1081.38" y="-192.45" font-family="Times,serif" font-size="14.00" fill="green">linked_to</text>
</g>
<!-- jinja2.environment.Template -->
<g id="node8" class="node">
<title>jinja2.environment.Template</title>
<polygon fill="cornflowerblue" stroke="cornflowerblue" points="853.5,-269 853.5,-305 1027.75,-305 1027.75,-269 853.5,-269"/>
<text text-anchor="middle" x="940.62" y="-281.95" font-family="Times,serif" font-size="14.00">jinja2.environment.Template</text>
</g>
<!-- jinja2.environment.Environment&#45;&gt;jinja2.environment.Template -->
<g id="edge24" class="edge">
<title>jinja2.environment.Environment&#45;&gt;jinja2.environment.Template</title>
<path fill="none" stroke="black" d="M911.45,-215.23C905.08,-220.38 899.18,-226.66 895.62,-234 891.02,-243.5 894.96,-252.64 902.1,-260.53"/>
<polygon fill="black" stroke="black" points="902.07,-260.5 909.2,-261.58 910.95,-268.57 903.82,-267.5 902.07,-260.5"/>
<text text-anchor="middle" x="930.12" y="-237.2" font-family="Times,serif" font-size="14.00" fill="green">environment</text>
</g>
<!-- jinja2.environment.Environment&#45;&gt;jinja2.environment.Template -->
<g id="edge38" class="edge">
<title>jinja2.environment.Environment&#45;&gt;jinja2.environment.Template</title>
<path fill="none" stroke="black" d="M955.09,-215.48C958.96,-221.03 962.62,-227.46 964.62,-234 966.77,-241.01 966.77,-243.49 964.62,-250.5 963.84,-253.06 962.81,-255.59 961.6,-258.07"/>
<polygon fill="none" stroke="black" points="961.69,-257.93 962.05,-265.13 955.55,-268.24 955.18,-261.04 961.69,-257.93"/>
<text text-anchor="middle" x="1001.12" y="-237.2" font-family="Times,serif" font-size="14.00" fill="green">environment</text>
</g>
<!-- palgen.module.Module -->
<g id="node30" class="node">
<title>palgen.module.Module</title>
<polygon fill="aliceblue" stroke="aliceblue" points="1415.88,-269 1415.88,-305 1559.38,-305 1559.38,-269 1415.88,-269"/>
<text text-anchor="middle" x="1487.62" y="-281.95" font-family="Times,serif" font-size="14.00">palgen.module.Module</text>
</g>
<!-- jinja2.environment.Environment&#45;&gt;palgen.module.Module -->
<g id="edge25" class="edge">
<title>jinja2.environment.Environment&#45;&gt;palgen.module.Module</title>
<path fill="none" stroke="black" d="M1037.82,-213.76C1077.46,-220 1123.74,-227.31 1165.62,-234 1246.36,-246.89 1338.44,-261.78 1403.4,-272.31"/>
<polygon fill="black" stroke="black" points="1403.28,-272.29 1409.85,-269.31 1415.13,-274.22 1408.57,-277.2 1403.28,-272.29"/>
<text text-anchor="middle" x="1298.12" y="-237.2" font-family="Times,serif" font-size="14.00" fill="green">environment</text>
</g>
<!-- jinja2.environment.TemplateModule -->
<g id="node9" class="node">
<title>jinja2.environment.TemplateModule</title>
<polygon fill="cornflowerblue" stroke="cornflowerblue" points="1125.12,-179.5 1125.12,-215.5 1342.12,-215.5 1342.12,-179.5 1125.12,-179.5"/>
<text text-anchor="middle" x="1233.62" y="-192.45" font-family="Times,serif" font-size="14.00">jinja2.environment.TemplateModule</text>
</g>
<!-- jinja2.environment.TemplateModule&#45;&gt;jinja2.environment.Template -->
<g id="edge26" class="edge">
<title>jinja2.environment.TemplateModule&#45;&gt;jinja2.environment.Template</title>
<path fill="none" stroke="black" d="M1176.78,-215.47C1128.97,-229.75 1060.45,-250.22 1009.52,-265.42"/>
<polygon fill="black" stroke="black" points="1009.67,-265.38 1005.06,-270.93 998.17,-268.81 1002.78,-263.27 1009.67,-265.38"/>
<text text-anchor="middle" x="1137.62" y="-237.2" font-family="Times,serif" font-size="14.00" fill="green">_module</text>
</g>
<!-- jinja2.utils.LRUCache -->
<g id="node10" class="node">
<title>jinja2.utils.LRUCache</title>
<polygon fill="cornflowerblue" stroke="cornflowerblue" points="871.5,-90 871.5,-126 1009.75,-126 1009.75,-90 871.5,-90"/>
<text text-anchor="middle" x="940.62" y="-102.95" font-family="Times,serif" font-size="14.00">jinja2.utils.LRUCache</text>
</g>
<!-- jinja2.utils.LRUCache&#45;&gt;jinja2.environment.Environment -->
<g id="edge27" class="edge">
<title>jinja2.utils.LRUCache&#45;&gt;jinja2.environment.Environment</title>
<path fill="none" stroke="black" d="M904.91,-125.99C898.07,-130.96 891.82,-137.09 887.88,-144.5 882.55,-154.5 887.14,-163.78 895.45,-171.65"/>
<polygon fill="black" stroke="black" points="895.47,-171.66 902.66,-172.2 904.93,-179.04 897.74,-178.51 895.47,-171.66"/>
<text text-anchor="middle" x="904" y="-147.7" font-family="Times,serif" font-size="14.00" fill="green">cache</text>
</g>
<!-- jinja2.utils.LRUCache&#45;&gt;jinja2.environment.Environment -->
<g id="edge28" class="edge">
<title>jinja2.utils.LRUCache&#45;&gt;jinja2.environment.Environment</title>
<path fill="none" stroke="black" d="M940.62,-125.87C940.62,-137.49 940.62,-153.24 940.62,-166.92"/>
<polygon fill="black" stroke="black" points="940.63,-166.78 944.63,-172.78 940.63,-178.78 936.63,-172.78 940.63,-166.78"/>
<text text-anchor="middle" x="956" y="-147.7" font-family="Times,serif" font-size="14.00" fill="green">cache</text>
</g>
<!-- jinja2.utils.LRUCache&#45;&gt;jinja2.environment.Environment -->
<g id="edge29" class="edge">
<title>jinja2.utils.LRUCache&#45;&gt;jinja2.environment.Environment</title>
<path fill="none" stroke="black" d="M960.5,-125.99C965.41,-131.36 970.01,-137.68 972.62,-144.5 975.25,-151.35 975.25,-154.15 972.62,-161 971.52,-163.88 970.06,-166.66 968.38,-169.33"/>
<polygon fill="black" stroke="black" points="968.4,-169.31 967.89,-176.5 961.05,-178.79 961.56,-171.6 968.4,-169.31"/>
<text text-anchor="middle" x="990" y="-147.7" font-family="Times,serif" font-size="14.00" fill="green">cache</text>
</g>
<!-- logging.Formatter -->
<g id="node11" class="node">
<title>logging.Formatter</title>
<polygon fill="grey" stroke="grey" points="1553.12,-90 1553.12,-126 1668.12,-126 1668.12,-90 1553.12,-90"/>
<text text-anchor="middle" x="1610.62" y="-102.95" font-family="Times,serif" font-size="14.00">logging.Formatter</text>
</g>
<!-- logging.PercentStyle -->
<g id="node12" class="node">
<title>logging.PercentStyle</title>
<polygon fill="grey" stroke="grey" points="1461,-0.5 1461,-36.5 1590.25,-36.5 1590.25,-0.5 1461,-0.5"/>
<text text-anchor="middle" x="1525.62" y="-13.45" font-family="Times,serif" font-size="14.00">logging.PercentStyle</text>
</g>
<!-- logging.PercentStyle&#45;&gt;logging.Formatter -->
<g id="edge30" class="edge">
<title>logging.PercentStyle&#45;&gt;logging.Formatter</title>
<path fill="none" stroke="black" d="M1542.01,-36.37C1554.36,-49.08 1571.51,-66.73 1585.57,-81.21"/>
<polygon fill="black" stroke="black" points="1585.3,-80.93 1592.35,-82.44 1593.66,-89.53 1586.61,-88.02 1585.3,-80.93"/>
<text text-anchor="middle" x="1592.75" y="-58.2" font-family="Times,serif" font-size="14.00" fill="green">_style</text>
</g>
<!-- palgen.ingest.filter.Extension -->
<g id="node13" class="node">
<title>palgen.ingest.filter.Extension</title>
<polygon fill="aquamarine" stroke="aquamarine" points="1801.12,-0.5 1801.12,-36.5 1976.12,-36.5 1976.12,-0.5 1801.12,-0.5"/>
<text text-anchor="middle" x="1888.62" y="-13.45" font-family="Times,serif" font-size="14.00">palgen.ingest.filter.Extension</text>
</g>
<!-- palgen.ingest.filter.Filter -->
<g id="node14" class="node">
<title>palgen.ingest.filter.Filter</title>
<polygon fill="aquamarine" stroke="aquamarine" points="2083.5,-90 2083.5,-126 2233.75,-126 2233.75,-90 2083.5,-90"/>
<text text-anchor="middle" x="2158.62" y="-102.95" font-family="Times,serif" font-size="14.00">palgen.ingest.filter.Filter</text>
</g>
<!-- palgen.ingest.filter.Extension&#45;&gt;palgen.ingest.filter.Filter -->
<g id="edge4" class="edge">
<title>palgen.ingest.filter.Extension&#45;&gt;palgen.ingest.filter.Filter</title>
<path fill="none" stroke="black" d="M1941,-36.47C1985.34,-50.84 2049,-71.47 2096.02,-86.71"/>
<polygon fill="none" stroke="black" points="2094.8,-90.32 2105.39,-90.07 2096.96,-83.66 2094.8,-90.32"/>
</g>
<!-- palgen.ingest.filter.Name -->
<g id="node15" class="node">
<title>palgen.ingest.filter.Name</title>
<polygon fill="aquamarine" stroke="aquamarine" points="1994.62,-0.5 1994.62,-36.5 2148.62,-36.5 2148.62,-0.5 1994.62,-0.5"/>
<text text-anchor="middle" x="2071.62" y="-13.45" font-family="Times,serif" font-size="14.00">palgen.ingest.filter.Name</text>
</g>
<!-- palgen.ingest.filter.Name&#45;&gt;palgen.ingest.filter.Filter -->
<g id="edge5" class="edge">
<title>palgen.ingest.filter.Name&#45;&gt;palgen.ingest.filter.Filter</title>
<path fill="none" stroke="black" d="M2088.4,-36.37C2101.4,-49.44 2119.59,-67.75 2134.21,-82.44"/>
<polygon fill="none" stroke="black" points="2131.37,-84.56 2140.9,-89.18 2136.33,-79.62 2131.37,-84.56"/>
</g>
<!-- palgen.ingest.filter.Pattern -->
<g id="node16" class="node">
<title>palgen.ingest.filter.Pattern</title>
<polygon fill="aquamarine" stroke="aquamarine" points="2167,-0.5 2167,-36.5 2326.25,-36.5 2326.25,-0.5 2167,-0.5"/>
<text text-anchor="middle" x="2246.62" y="-13.45" font-family="Times,serif" font-size="14.00">palgen.ingest.filter.Pattern</text>
</g>
<!-- palgen.ingest.filter.Pattern&#45;&gt;palgen.ingest.filter.Filter -->
<g id="edge6" class="edge">
<title>palgen.ingest.filter.Pattern&#45;&gt;palgen.ingest.filter.Filter</title>
<path fill="none" stroke="black" d="M2229.66,-36.37C2216.51,-49.44 2198.1,-67.75 2183.32,-82.44"/>
<polygon fill="none" stroke="black" points="2181.16,-79.65 2176.54,-89.18 2186.1,-84.61 2181.16,-79.65"/>
</g>
<!-- palgen.ingest.filter.Stem -->
<g id="node17" class="node">
<title>palgen.ingest.filter.Stem</title>
<polygon fill="aquamarine" stroke="aquamarine" points="2343.88,-0.5 2343.88,-36.5 2493.38,-36.5 2493.38,-0.5 2343.88,-0.5"/>
<text text-anchor="middle" x="2418.62" y="-13.45" font-family="Times,serif" font-size="14.00">palgen.ingest.filter.Stem</text>
</g>
<!-- palgen.ingest.filter.Stem&#45;&gt;palgen.ingest.filter.Filter -->
<g id="edge7" class="edge">
<title>palgen.ingest.filter.Stem&#45;&gt;palgen.ingest.filter.Filter</title>
<path fill="none" stroke="black" d="M2368.19,-36.47C2325.58,-50.81 2264.44,-71.39 2219.19,-86.62"/>
<polygon fill="none" stroke="black" points="2218.28,-83.57 2209.92,-90.07 2220.52,-90.2 2218.28,-83.57"/>
</g>
<!-- palgen.ingest.loader.Empty -->
<g id="node18" class="node">
<title>palgen.ingest.loader.Empty</title>
<polygon fill="aquamarine" stroke="aquamarine" points="2511,-0.5 2511,-36.5 2676.25,-36.5 2676.25,-0.5 2511,-0.5"/>
<text text-anchor="middle" x="2593.62" y="-13.45" font-family="Times,serif" font-size="14.00">palgen.ingest.loader.Empty</text>
</g>
<!-- palgen.ingest.loader.Ingest -->
<g id="node19" class="node">
<title>palgen.ingest.loader.Ingest</title>
<polygon fill="aquamarine" stroke="aquamarine" points="2870.88,-90 2870.88,-126 3032.38,-126 3032.38,-90 2870.88,-90"/>
<text text-anchor="middle" x="2951.62" y="-102.95" font-family="Times,serif" font-size="14.00">palgen.ingest.loader.Ingest</text>
</g>
<!-- palgen.ingest.loader.Empty&#45;&gt;palgen.ingest.loader.Ingest -->
<g id="edge8" class="edge">
<title>palgen.ingest.loader.Empty&#45;&gt;palgen.ingest.loader.Ingest</title>
<path fill="none" stroke="black" d="M2663.08,-36.47C2722.85,-51.09 2809.12,-72.17 2871.75,-87.48"/>
<polygon fill="none" stroke="black" points="2870.82,-91.1 2881.37,-90.07 2872.48,-84.3 2870.82,-91.1"/>
</g>
<!-- palgen.ingest.loader.Json -->
<g id="node20" class="node">
<title>palgen.ingest.loader.Json</title>
<polygon fill="aquamarine" stroke="aquamarine" points="2694.38,-0.5 2694.38,-36.5 2846.88,-36.5 2846.88,-0.5 2694.38,-0.5"/>
<text text-anchor="middle" x="2770.62" y="-13.45" font-family="Times,serif" font-size="14.00">palgen.ingest.loader.Json</text>
</g>
<!-- palgen.ingest.loader.Json&#45;&gt;palgen.ingest.loader.Ingest -->
<g id="edge9" class="edge">
<title>palgen.ingest.loader.Json&#45;&gt;palgen.ingest.loader.Ingest</title>
<path fill="none" stroke="black" d="M2805.52,-36.37C2834.35,-50.31 2875.47,-70.18 2906.74,-85.3"/>
<polygon fill="none" stroke="black" points="2905,-88.83 2915.53,-90.03 2908.05,-82.53 2905,-88.83"/>
</g>
<!-- palgen.ingest.loader.Nothing -->
<g id="node21" class="node">
<title>palgen.ingest.loader.Nothing</title>
<polygon fill="aquamarine" stroke="aquamarine" points="2865.25,-0.5 2865.25,-36.5 3038,-36.5 3038,-0.5 2865.25,-0.5"/>
<text text-anchor="middle" x="2951.62" y="-13.45" font-family="Times,serif" font-size="14.00">palgen.ingest.loader.Nothing</text>
</g>
<!-- palgen.ingest.loader.Nothing&#45;&gt;palgen.ingest.loader.Ingest -->
<g id="edge10" class="edge">
<title>palgen.ingest.loader.Nothing&#45;&gt;palgen.ingest.loader.Ingest</title>
<path fill="none" stroke="black" d="M2951.62,-36.37C2951.62,-48.6 2951.62,-65.4 2951.62,-79.54"/>
<polygon fill="none" stroke="black" points="2948.13,-79.18 2951.62,-89.18 2955.13,-79.18 2948.13,-79.18"/>
</g>
<!-- palgen.ingest.loader.Raw -->
<g id="node22" class="node">
<title>palgen.ingest.loader.Raw</title>
<polygon fill="aquamarine" stroke="aquamarine" points="3056,-0.5 3056,-36.5 3209.25,-36.5 3209.25,-0.5 3056,-0.5"/>
<text text-anchor="middle" x="3132.62" y="-13.45" font-family="Times,serif" font-size="14.00">palgen.ingest.loader.Raw</text>
</g>
<!-- palgen.ingest.loader.Raw&#45;&gt;palgen.ingest.loader.Ingest -->
<g id="edge11" class="edge">
<title>palgen.ingest.loader.Raw&#45;&gt;palgen.ingest.loader.Ingest</title>
<path fill="none" stroke="black" d="M3097.73,-36.37C3068.9,-50.31 3027.78,-70.18 2996.51,-85.3"/>
<polygon fill="none" stroke="black" points="2995.2,-82.53 2987.72,-90.03 2998.25,-88.83 2995.2,-82.53"/>
</g>
<!-- palgen.ingest.loader.Toml -->
<g id="node23" class="node">
<title>palgen.ingest.loader.Toml</title>
<polygon fill="aquamarine" stroke="aquamarine" points="3227.75,-0.5 3227.75,-36.5 3385.5,-36.5 3385.5,-0.5 3227.75,-0.5"/>
<text text-anchor="middle" x="3306.62" y="-13.45" font-family="Times,serif" font-size="14.00">palgen.ingest.loader.Toml</text>
</g>
<!-- palgen.ingest.loader.Toml&#45;&gt;palgen.ingest.loader.Ingest -->
<g id="edge12" class="edge">
<title>palgen.ingest.loader.Toml&#45;&gt;palgen.ingest.loader.Ingest</title>
<path fill="none" stroke="black" d="M3237.76,-36.47C3178.48,-51.09 3092.94,-72.17 3030.83,-87.48"/>
<polygon fill="none" stroke="black" points="3030.17,-84.28 3021.3,-90.07 3031.85,-91.08 3030.17,-84.28"/>
</g>
<!-- palgen.integrations.jinja2.template.Template -->
<g id="node24" class="node">
<title>palgen.integrations.jinja2.template.Template</title>
<polygon fill="burlywood" stroke="burlywood" points="565.75,-179.5 565.75,-215.5 825.5,-215.5 825.5,-179.5 565.75,-179.5"/>
<text text-anchor="middle" x="695.62" y="-192.45" font-family="Times,serif" font-size="14.00">palgen.integrations.jinja2.template.Template</text>
</g>
<!-- palgen.integrations.jinja2.template.Template&#45;&gt;jinja2.environment.Template -->
<g id="edge13" class="edge">
<title>palgen.integrations.jinja2.template.Template&#45;&gt;jinja2.environment.Template</title>
<path fill="none" stroke="black" d="M743.15,-215.47C783.13,-229.75 840.43,-250.22 883.01,-265.42"/>
<polygon fill="none" stroke="black" points="881.63,-269.01 892.23,-269.07 883.99,-262.41 881.63,-269.01"/>
</g>
<!-- palgen.loaders.Loader -->
<g id="node25" class="node">
<title>palgen.loaders.Loader</title>
<polygon fill="aliceblue" stroke="aliceblue" points="3537.25,-90 3537.25,-126 3674,-126 3674,-90 3537.25,-90"/>
<text text-anchor="middle" x="3605.62" y="-102.95" font-family="Times,serif" font-size="14.00">palgen.loaders.Loader</text>
</g>
<!-- palgen.loaders.command.CommandLoader -->
<g id="node26" class="node">
<title>palgen.loaders.command.CommandLoader</title>
<polygon fill="cadetblue" stroke="cadetblue" points="340.12,-0.5 340.12,-36.5 593.12,-36.5 593.12,-0.5 340.12,-0.5"/>
<text text-anchor="middle" x="466.62" y="-13.45" font-family="Times,serif" font-size="14.00">palgen.loaders.command.CommandLoader</text>
</g>
<!-- palgen.loaders.command.CommandLoader&#45;&gt;click.core.Group -->
<g id="edge14" class="edge">
<title>palgen.loaders.command.CommandLoader&#45;&gt;click.core.Group</title>
<path fill="none" stroke="black" d="M466.62,-36.37C466.62,-48.6 466.62,-65.4 466.62,-79.54"/>
<polygon fill="none" stroke="black" points="463.13,-79.18 466.62,-89.18 470.13,-79.18 463.13,-79.18"/>
</g>
<!-- palgen.loaders.manifest.Manifest -->
<g id="node27" class="node">
<title>palgen.loaders.manifest.Manifest</title>
<polygon fill="cadetblue" stroke="cadetblue" points="3403.5,-0.5 3403.5,-36.5 3601.75,-36.5 3601.75,-0.5 3403.5,-0.5"/>
<text text-anchor="middle" x="3502.62" y="-13.45" font-family="Times,serif" font-size="14.00">palgen.loaders.manifest.Manifest</text>
</g>
<!-- palgen.loaders.manifest.Manifest&#45;&gt;palgen.loaders.Loader -->
<g id="edge15" class="edge">
<title>palgen.loaders.manifest.Manifest&#45;&gt;palgen.loaders.Loader</title>
<path fill="none" stroke="black" d="M3522.48,-36.37C3538.16,-49.69 3560.22,-68.43 3577.67,-83.26"/>
<polygon fill="none" stroke="black" points="3574.94,-86.37 3584.83,-90.18 3579.47,-81.04 3574.94,-86.37"/>
</g>
<!-- palgen.loaders.manifest.ManifestSchema -->
<g id="node28" class="node">
<title>palgen.loaders.manifest.ManifestSchema</title>
<polygon fill="cadetblue" stroke="cadetblue" points="3815.75,-0.5 3815.75,-36.5 4057.5,-36.5 4057.5,-0.5 3815.75,-0.5"/>
<text text-anchor="middle" x="3936.62" y="-13.45" font-family="Times,serif" font-size="14.00">palgen.loaders.manifest.ManifestSchema</text>
</g>
<!-- palgen.loaders.python.Python -->
<g id="node29" class="node">
<title>palgen.loaders.python.Python</title>
<polygon fill="cadetblue" stroke="cadetblue" points="3619.62,-0.5 3619.62,-36.5 3797.62,-36.5 3797.62,-0.5 3619.62,-0.5"/>
<text text-anchor="middle" x="3708.62" y="-13.45" font-family="Times,serif" font-size="14.00">palgen.loaders.python.Python</text>
</g>
<!-- palgen.loaders.python.Python&#45;&gt;palgen.loaders.Loader -->
<g id="edge16" class="edge">
<title>palgen.loaders.python.Python&#45;&gt;palgen.loaders.Loader</title>
<path fill="none" stroke="black" d="M3688.77,-36.37C3673.09,-49.69 3651.03,-68.43 3633.58,-83.26"/>
<polygon fill="none" stroke="black" points="3631.78,-81.04 3626.42,-90.18 3636.31,-86.37 3631.78,-81.04"/>
</g>
<!-- palgen.modules.Modules -->
<g id="node31" class="node">
<title>palgen.modules.Modules</title>
<polygon fill="aliceblue" stroke="aliceblue" points="4075.62,-0.5 4075.62,-36.5 4229.62,-36.5 4229.62,-0.5 4075.62,-0.5"/>
<text text-anchor="middle" x="4152.62" y="-13.45" font-family="Times,serif" font-size="14.00">palgen.modules.Modules</text>
</g>
<!-- palgen.palgen.Palgen -->
<g id="node32" class="node">
<title>palgen.palgen.Palgen</title>
<polygon fill="aliceblue" stroke="aliceblue" points="1612.5,-269 1612.5,-305 1744.75,-305 1744.75,-269 1612.5,-269"/>
<text text-anchor="middle" x="1678.62" y="-281.95" font-family="Times,serif" font-size="14.00">palgen.palgen.Palgen</text>
</g>
<!-- palgen.schemas.palgen.ModuleSettings -->
<g id="node33" class="node">
<title>palgen.schemas.palgen.ModuleSettings</title>
<polygon fill="chartreuse" stroke="chartreuse" points="4247.62,-0.5 4247.62,-36.5 4479.62,-36.5 4479.62,-0.5 4247.62,-0.5"/>
<text text-anchor="middle" x="4363.62" y="-13.45" font-family="Times,serif" font-size="14.00">palgen.schemas.palgen.ModuleSettings</text>
</g>
<!-- palgen.schemas.palgen.PalgenSettings -->
<g id="node34" class="node">
<title>palgen.schemas.palgen.PalgenSettings</title>
<polygon fill="chartreuse" stroke="chartreuse" points="4250.62,-90 4250.62,-126 4476.62,-126 4476.62,-90 4250.62,-90"/>
<text text-anchor="middle" x="4363.62" y="-102.95" font-family="Times,serif" font-size="14.00">palgen.schemas.palgen.PalgenSettings</text>
</g>
<!-- palgen.schemas.palgen.ModuleSettings&#45;&gt;palgen.schemas.palgen.PalgenSettings -->
<g id="edge31" class="edge">
<title>palgen.schemas.palgen.ModuleSettings&#45;&gt;palgen.schemas.palgen.PalgenSettings</title>
<path fill="none" stroke="black" d="M4363.62,-36.37C4363.62,-47.99 4363.62,-63.74 4363.62,-77.42"/>
<polygon fill="black" stroke="black" points="4363.63,-77.28 4367.63,-83.28 4363.63,-89.28 4359.63,-83.28 4363.63,-77.28"/>
<text text-anchor="middle" x="4386.88" y="-58.2" font-family="Times,serif" font-size="14.00" fill="green">modules</text>
</g>
<!-- palgen.schemas.project.ProjectSettings -->
<g id="node35" class="node">
<title>palgen.schemas.project.ProjectSettings</title>
<polygon fill="chartreuse" stroke="chartreuse" points="4498.12,-0.5 4498.12,-36.5 4727.12,-36.5 4727.12,-0.5 4498.12,-0.5"/>
<text text-anchor="middle" x="4612.62" y="-13.45" font-family="Times,serif" font-size="14.00">palgen.schemas.project.ProjectSettings</text>
</g>
<!-- palgen.schemas.root.RootSettings -->
<g id="node36" class="node">
<title>palgen.schemas.root.RootSettings</title>
<polygon fill="chartreuse" stroke="chartreuse" points="4745,-0.5 4745,-36.5 4946.25,-36.5 4946.25,-0.5 4745,-0.5"/>
<text text-anchor="middle" x="4845.62" y="-13.45" font-family="Times,serif" font-size="14.00">palgen.schemas.root.RootSettings</text>
</g>
<!-- palgen.util.ast_helper.AST -->
<g id="node37" class="node">
<title>palgen.util.ast_helper.AST</title>
<polygon fill="chocolate" stroke="chocolate" points="4963.88,-0.5 4963.88,-36.5 5125.38,-36.5 5125.38,-0.5 4963.88,-0.5"/>
<text text-anchor="middle" x="5044.62" y="-13.45" font-family="Times,serif" font-size="14.00">palgen.util.ast_helper.AST</text>
</g>
<!-- palgen.util.ast_helper.Class -->
<g id="node38" class="node">
<title>palgen.util.ast_helper.Class</title>
<polygon fill="chocolate" stroke="chocolate" points="5143,-0.5 5143,-36.5 5308.25,-36.5 5308.25,-0.5 5143,-0.5"/>
<text text-anchor="middle" x="5225.62" y="-13.45" font-family="Times,serif" font-size="14.00">palgen.util.ast_helper.Class</text>
</g>
<!-- palgen.util.ast_helper.Import -->
<g id="node39" class="node">
<title>palgen.util.ast_helper.Import</title>
<polygon fill="chocolate" stroke="chocolate" points="5325.88,-0.5 5325.88,-36.5 5499.38,-36.5 5499.38,-0.5 5325.88,-0.5"/>
<text text-anchor="middle" x="5412.62" y="-13.45" font-family="Times,serif" font-size="14.00">palgen.util.ast_helper.Import</text>
</g>
<!-- palgen.util.cli.DictParam -->
<g id="node40" class="node">
<title>palgen.util.cli.DictParam</title>
<polygon fill="chocolate" stroke="chocolate" points="0,-0.5 0,-36.5 153.25,-36.5 153.25,-0.5 0,-0.5"/>
<text text-anchor="middle" x="76.62" y="-13.45" font-family="Times,serif" font-size="14.00">palgen.util.cli.DictParam</text>
</g>
<!-- palgen.util.cli.DictParam&#45;&gt;abc.ABC -->
<g id="edge17" class="edge">
<title>palgen.util.cli.DictParam&#45;&gt;abc.ABC</title>
<path fill="none" stroke="black" d="M82.02,-36.37C85.97,-48.72 91.42,-65.73 95.97,-79.96"/>
<polygon fill="none" stroke="black" points="92.86,-80.72 99.24,-89.18 99.53,-78.59 92.86,-80.72"/>
</g>
<!-- palgen.util.cli.DictParam&#45;&gt;click.types.ParamType -->
<g id="edge18" class="edge">
<title>palgen.util.cli.DictParam&#45;&gt;click.types.ParamType</title>
<path fill="none" stroke="black" d="M106.51,-36.37C130.88,-50.13 165.5,-69.67 192.14,-84.71"/>
<polygon fill="none" stroke="black" points="190.14,-88.16 200.57,-90.03 193.58,-82.07 190.14,-88.16"/>
</g>
<!-- palgen.util.cli.ListParam -->
<g id="node41" class="node">
<title>palgen.util.cli.ListParam</title>
<polygon fill="chocolate" stroke="chocolate" points="171.12,-0.5 171.12,-36.5 322.12,-36.5 322.12,-0.5 171.12,-0.5"/>
<text text-anchor="middle" x="246.62" y="-13.45" font-family="Times,serif" font-size="14.00">palgen.util.cli.ListParam</text>
</g>
<!-- palgen.util.cli.ListParam&#45;&gt;abc.ABC -->
<g id="edge19" class="edge">
<title>palgen.util.cli.ListParam&#45;&gt;abc.ABC</title>
<path fill="none" stroke="black" d="M219.25,-36.37C197.05,-50.05 165.56,-69.45 141.2,-84.46"/>
<polygon fill="none" stroke="black" points="139.6,-81.96 132.92,-90.18 143.27,-87.91 139.6,-81.96"/>
</g>
<!-- palgen.util.cli.ListParam&#45;&gt;click.types.ParamType -->
<g id="edge20" class="edge">
<title>palgen.util.cli.ListParam&#45;&gt;click.types.ParamType</title>
<path fill="none" stroke="black" d="M243.73,-36.37C241.64,-48.6 238.76,-65.4 236.33,-79.54"/>
<polygon fill="none" stroke="black" points="232.75,-78.73 234.51,-89.18 239.65,-79.92 232.75,-78.73"/>
</g>
<!-- palgen.util.filesystem.Sources -->
<g id="node42" class="node">
<title>palgen.util.filesystem.Sources</title>
<polygon fill="chocolate" stroke="chocolate" points="1354.5,-90 1354.5,-126 1534.75,-126 1534.75,-90 1354.5,-90"/>
<text text-anchor="middle" x="1444.62" y="-102.95" font-family="Times,serif" font-size="14.00">palgen.util.filesystem.Sources</text>
</g>
<!-- palgen.util.pipeline.Pipeline -->
<g id="node44" class="node">
<title>palgen.util.pipeline.Pipeline</title>
<polygon fill="chocolate" stroke="chocolate" points="1360.12,-179.5 1360.12,-215.5 1529.12,-215.5 1529.12,-179.5 1360.12,-179.5"/>
<text text-anchor="middle" x="1444.62" y="-192.45" font-family="Times,serif" font-size="14.00">palgen.util.pipeline.Pipeline</text>
</g>
<!-- palgen.util.filesystem.Sources&#45;&gt;palgen.util.pipeline.Pipeline -->
<g id="edge21" class="edge">
<title>palgen.util.filesystem.Sources&#45;&gt;palgen.util.pipeline.Pipeline</title>
<path fill="none" stroke="black" d="M1444.62,-125.87C1444.62,-138.1 1444.62,-154.9 1444.62,-169.04"/>
<polygon fill="none" stroke="black" points="1441.13,-168.68 1444.62,-178.68 1448.13,-168.68 1441.13,-168.68"/>
</g>
<!-- palgen.util.log.LogFormatter -->
<g id="node43" class="node">
<title>palgen.util.log.LogFormatter</title>
<polygon fill="chocolate" stroke="chocolate" points="1608.5,-0.5 1608.5,-36.5 1782.75,-36.5 1782.75,-0.5 1608.5,-0.5"/>
<text text-anchor="middle" x="1695.62" y="-13.45" font-family="Times,serif" font-size="14.00">palgen.util.log.LogFormatter</text>
</g>
<!-- palgen.util.log.LogFormatter&#45;&gt;logging.Formatter -->
<g id="edge22" class="edge">
<title>palgen.util.log.LogFormatter&#45;&gt;logging.Formatter</title>
<path fill="none" stroke="black" d="M1679.24,-36.37C1666.54,-49.44 1648.76,-67.75 1634.48,-82.44"/>
<polygon fill="none" stroke="black" points="1632.42,-79.57 1627.96,-89.18 1637.44,-84.45 1632.42,-79.57"/>
</g>
<!-- palgen.util.pipeline.Pipeline&#45;&gt;palgen.module.Module -->
<g id="edge32" class="edge">
<title>palgen.util.pipeline.Pipeline&#45;&gt;palgen.module.Module</title>
<path fill="none" stroke="black" d="M1435.38,-215.26C1430.85,-225.88 1427.49,-239.61 1433.38,-250.5 1435.41,-254.26 1438.04,-257.69 1441.03,-260.8"/>
<polygon fill="black" stroke="black" points="1441.08,-260.84 1448.24,-261.67 1450.23,-268.61 1443.06,-267.77 1441.08,-260.84"/>
<text text-anchor="middle" x="1449.75" y="-237.2" font-family="Times,serif" font-size="14.00" fill="green">ingest</text>
</g>
<!-- palgen.util.pipeline.PipelineMeta -->
<g id="node45" class="node">
<title>palgen.util.pipeline.PipelineMeta</title>
<polygon fill="chocolate" stroke="chocolate" points="5517.88,-0.5 5517.88,-36.5 5715.38,-36.5 5715.38,-0.5 5517.88,-0.5"/>
<text text-anchor="middle" x="5616.62" y="-13.45" font-family="Times,serif" font-size="14.00">palgen.util.pipeline.PipelineMeta</text>
</g>
<!-- palgen.util.template.Foo -->
<g id="node46" class="node">
<title>palgen.util.template.Foo</title>
<polygon fill="chocolate" stroke="chocolate" points="5733.88,-0.5 5733.88,-36.5 5883.38,-36.5 5883.38,-0.5 5733.88,-0.5"/>
<text text-anchor="middle" x="5808.62" y="-13.45" font-family="Times,serif" font-size="14.00">palgen.util.template.Foo</text>
</g>
<!-- palgen.util.template.Template -->
<g id="node47" class="node">
<title>palgen.util.template.Template</title>
<polygon fill="chocolate" stroke="chocolate" points="5901.88,-0.5 5901.88,-36.5 6081.38,-36.5 6081.38,-0.5 5901.88,-0.5"/>
<text text-anchor="middle" x="5991.62" y="-13.45" font-family="Times,serif" font-size="14.00">palgen.util.template.Template</text>
</g>
<!-- pathlib.Path -->
<g id="node48" class="node">
<title>pathlib.Path</title>
<polygon fill="grey" stroke="grey" points="1603,-179.5 1603,-215.5 1684.25,-215.5 1684.25,-179.5 1603,-179.5"/>
<text text-anchor="middle" x="1643.62" y="-192.45" font-family="Times,serif" font-size="14.00">pathlib.Path</text>
</g>
<!-- pathlib.Path&#45;&gt;palgen.module.Module -->
<g id="edge33" class="edge">
<title>pathlib.Path&#45;&gt;palgen.module.Module</title>
<path fill="none" stroke="black" d="M1603.01,-205.13C1559.49,-212.65 1495.64,-225.03 1488.38,-234 1483.35,-240.21 1481.71,-248.33 1481.71,-256.3"/>
<polygon fill="black" stroke="black" points="1481.72,-256.37 1486.28,-261.96 1482.87,-268.32 1478.32,-262.73 1481.72,-256.37"/>
<text text-anchor="middle" x="1500.25" y="-237.2" font-family="Times,serif" font-size="14.00" fill="green">path</text>
</g>
<!-- pathlib.Path&#45;&gt;palgen.module.Module -->
<g id="edge39" class="edge">
<title>pathlib.Path&#45;&gt;palgen.module.Module</title>
<path fill="none" stroke="black" d="M1603.19,-206.41C1581.71,-211.87 1555.55,-220.62 1534.88,-234 1524.46,-240.74 1514.86,-250.34 1507.07,-259.45"/>
<polygon fill="none" stroke="black" points="1507.19,-259.31 1506.55,-266.49 1499.67,-268.66 1500.31,-261.48 1507.19,-259.31"/>
<text text-anchor="middle" x="1561.5" y="-237.2" font-family="Times,serif" font-size="14.00" fill="green">root_path</text>
</g>
<!-- pathlib.Path&#45;&gt;palgen.module.Module -->
<g id="edge40" class="edge">
<title>pathlib.Path&#45;&gt;palgen.module.Module</title>
<path fill="none" stroke="black" d="M1626.56,-215.46C1613.08,-228.58 1595.17,-245.35 1586.62,-250.5 1578.05,-255.67 1568.6,-260.25 1559.05,-264.26"/>
<polygon fill="none" stroke="black" points="1558.96,-264.29 1554.85,-270.22 1547.8,-268.7 1551.91,-262.78 1558.96,-264.29"/>
<text text-anchor="middle" x="1631.25" y="-237.2" font-family="Times,serif" font-size="14.00" fill="green">out_path</text>
</g>
<!-- pathlib.Path&#45;&gt;palgen.palgen.Palgen -->
<g id="edge34" class="edge">
<title>pathlib.Path&#45;&gt;palgen.palgen.Palgen</title>
<path fill="none" stroke="black" d="M1650.37,-215.37C1655.12,-227.23 1661.59,-243.4 1667.13,-257.27"/>
<polygon fill="black" stroke="black" points="1667.11,-257.2 1673.05,-261.29 1671.56,-268.34 1665.62,-264.26 1667.11,-257.2"/>
<text text-anchor="middle" x="1694.25" y="-237.2" font-family="Times,serif" font-size="14.00" fill="green">config_file</text>
</g>
<!-- pathlib.Path&#45;&gt;palgen.palgen.Palgen -->
<g id="edge35" class="edge">
<title>pathlib.Path&#45;&gt;palgen.palgen.Palgen</title>
<path fill="none" stroke="black" d="M1684.16,-205.53C1700.52,-210.58 1717.83,-219.22 1727.62,-234 1733.93,-243.51 1729.37,-252.91 1720.94,-261.04"/>
<polygon fill="black" stroke="black" points="1721.1,-260.91 1718.94,-267.79 1711.75,-268.44 1713.92,-261.56 1721.1,-260.91"/>
<text text-anchor="middle" x="1741.5" y="-237.2" font-family="Times,serif" font-size="14.00" fill="green">root</text>
</g>
<!-- pathlib.PurePath -->
<g id="node49" class="node">
<title>pathlib.PurePath</title>
<polygon fill="grey" stroke="grey" points="1762.62,-269 1762.62,-305 1868.62,-305 1868.62,-269 1762.62,-269"/>
<text text-anchor="middle" x="1815.62" y="-281.95" font-family="Times,serif" font-size="14.00">pathlib.PurePath</text>
</g>
<!-- pathlib.Path&#45;&gt;pathlib.PurePath -->
<g id="edge23" class="edge">
<title>pathlib.Path&#45;&gt;pathlib.PurePath</title>
<path fill="none" stroke="black" d="M1683.99,-206.82C1706.33,-212.48 1734.06,-221.27 1756.62,-234 1769.76,-241.41 1782.55,-252.11 1792.84,-261.87"/>
<polygon fill="none" stroke="black" points="1789.93,-263.91 1799.52,-268.43 1794.84,-258.92 1789.93,-263.91"/>
</g>
<!-- threading.lock -->
<g id="node50" class="node">
<title>threading.lock</title>
<polygon fill="grey" stroke="grey" points="893.62,-0.5 893.62,-36.5 987.62,-36.5 987.62,-0.5 893.62,-0.5"/>
<text text-anchor="middle" x="940.62" y="-13.45" font-family="Times,serif" font-size="14.00">threading.lock</text>
</g>
<!-- threading.lock&#45;&gt;jinja2.utils.LRUCache -->
<g id="edge36" class="edge">
<title>threading.lock&#45;&gt;jinja2.utils.LRUCache</title>
<path fill="none" stroke="black" d="M940.62,-36.37C940.62,-47.99 940.62,-63.74 940.62,-77.42"/>
<polygon fill="black" stroke="black" points="940.63,-77.28 944.63,-83.28 940.63,-89.28 936.63,-83.28 940.63,-77.28"/>
<text text-anchor="middle" x="960.5" y="-58.2" font-family="Times,serif" font-size="14.00" fill="green">_wlock</text>
</g>
</g>
</svg>
