<?xml version="1.0" encoding="UTF-8" standalone="no"?>
<!DOCTYPE svg PUBLIC "-//W3C//DTD SVG 1.1//EN"
 "http://www.w3.org/Graphics/SVG/1.1/DTD/svg11.dtd">
<!-- Generated by graphviz version 8.0.5 (0)
 -->
<!-- Title: packages Pages: 1 -->
<svg width="1976pt" height="836pt"
 viewBox="0.00 0.00 1976.00 836.00" xmlns="http://www.w3.org/2000/svg" xmlns:xlink="http://www.w3.org/1999/xlink">
<g id="graph0" class="graph" transform="scale(1 1) rotate(0) translate(4 832)">
<title>packages</title>
<polygon fill="white" stroke="none" points="-4,4 -4,-832 1972,-832 1972,4 -4,4"/>
<!-- palgen -->
<g id="node1" class="node">
<title>palgen</title>
<polygon fill="aliceblue" stroke="aliceblue" points="578.5,-108 524.5,-108 524.5,-72 578.5,-72 578.5,-108"/>
<text text-anchor="middle" x="551.5" y="-84.95" font-family="Times,serif" font-size="14.00">palgen</text>
</g>
<!-- palgen.cli -->
<g id="node3" class="node">
<title>palgen.cli</title>
<polygon fill="aliceblue" stroke="aliceblue" points="364.12,-180 294.88,-180 294.88,-144 364.12,-144 364.12,-180"/>
<text text-anchor="middle" x="329.5" y="-156.95" font-family="Times,serif" font-size="14.00">palgen.cli</text>
</g>
<!-- palgen&#45;&gt;palgen.cli -->
<g id="edge1" class="edge">
<title>palgen&#45;&gt;palgen.cli</title>
<path fill="none" stroke="black" d="M524.27,-98.25C490.77,-107.35 432.02,-123.87 373.92,-143.63"/>
<polygon fill="black" stroke="black" points="364.61,-146.83 372.6,-139.32 369.33,-145.2 374.06,-143.58 374.06,-143.58 374.06,-143.58 369.33,-145.2 375.52,-147.84 364.61,-146.83 364.61,-146.83"/>
</g>
<!-- palgen.palgen -->
<g id="node23" class="node">
<title>palgen.palgen</title>
<polygon fill="aliceblue" stroke="aliceblue" points="520.38,-324 428.62,-324 428.62,-288 520.38,-288 520.38,-324"/>
<text text-anchor="middle" x="474.5" y="-300.95" font-family="Times,serif" font-size="14.00">palgen.palgen</text>
</g>
<!-- palgen&#45;&gt;palgen.palgen -->
<g id="edge2" class="edge">
<title>palgen&#45;&gt;palgen.palgen</title>
<path fill="none" stroke="black" d="M560.06,-108.4C574.05,-139.57 597.68,-205.95 570.5,-252 561.27,-267.63 545.6,-278.97 529.57,-287.05"/>
<polygon fill="black" stroke="black" points="520.66,-291.21 527.82,-282.9 525.19,-289.09 529.72,-286.98 529.72,-286.98 529.72,-286.98 525.19,-289.09 531.63,-291.05 520.66,-291.21 520.66,-291.21"/>
</g>
<!-- palgen.util.log -->
<g id="node32" class="node">
<title>palgen.util.log</title>
<polygon fill="chocolate" stroke="chocolate" points="561.88,-252 467.12,-252 467.12,-216 561.88,-216 561.88,-252"/>
<text text-anchor="middle" x="514.5" y="-228.95" font-family="Times,serif" font-size="14.00">palgen.util.log</text>
</g>
<!-- palgen&#45;&gt;palgen.util.log -->
<g id="edge3" class="edge">
<title>palgen&#45;&gt;palgen.util.log</title>
<path fill="none" stroke="black" d="M548.45,-108.21C545.1,-126.24 539.3,-155.32 532.5,-180 530.09,-188.75 527.04,-198.18 524.14,-206.62"/>
<polygon fill="black" stroke="black" points="520.85,-215.97 519.92,-205.05 522.51,-211.26 524.17,-206.54 524.17,-206.54 524.17,-206.54 522.51,-211.26 528.41,-208.03 520.85,-215.97 520.85,-215.97"/>
</g>
<!-- palgen.__main__ -->
<g id="node2" class="node">
<title>palgen.__main__</title>
<polygon fill="aliceblue" stroke="aliceblue" points="606.75,-36 496.25,-36 496.25,0 606.75,0 606.75,-36"/>
<text text-anchor="middle" x="551.5" y="-12.95" font-family="Times,serif" font-size="14.00">palgen.__main__</text>
</g>
<!-- palgen.__main__&#45;&gt;palgen -->
<g id="edge4" class="edge">
<title>palgen.__main__&#45;&gt;palgen</title>
<path fill="none" stroke="black" d="M551.5,-36.3C551.5,-44.1 551.5,-53.49 551.5,-62.17"/>
<polygon fill="black" stroke="black" points="551.5,-71.9 547,-61.9 551.5,-66.9 551.5,-61.9 551.5,-61.9 551.5,-61.9 551.5,-66.9 556,-61.9 551.5,-71.9 551.5,-71.9"/>
</g>
<!-- palgen.loaders.command -->
<g id="node18" class="node">
<title>palgen.loaders.command</title>
<polygon fill="cadetblue" stroke="cadetblue" points="227.12,-252 73.88,-252 73.88,-216 227.12,-216 227.12,-252"/>
<text text-anchor="middle" x="150.5" y="-228.95" font-family="Times,serif" font-size="14.00">palgen.loaders.command</text>
</g>
<!-- palgen.cli&#45;&gt;palgen.loaders.command -->
<g id="edge5" class="edge">
<title>palgen.cli&#45;&gt;palgen.loaders.command</title>
<path fill="none" stroke="black" d="M294.56,-176.66C268.95,-186.68 233.69,-200.47 204.47,-211.89"/>
<polygon fill="black" stroke="black" points="195.21,-215.51 202.89,-207.68 199.87,-213.69 204.53,-211.87 204.53,-211.87 204.53,-211.87 199.87,-213.69 206.17,-216.06 195.21,-215.51 195.21,-215.51"/>
</g>
<!-- palgen.cli&#45;&gt;palgen.palgen -->
<g id="edge6" class="edge">
<title>palgen.cli&#45;&gt;palgen.palgen</title>
<path fill="none" stroke="black" d="M364.23,-178.07C382.47,-187.18 404.33,-200.11 420.5,-216 438.89,-234.07 453.56,-259.63 462.93,-278.73"/>
<polygon fill="black" stroke="black" points="467.11,-287.53 458.75,-280.42 464.96,-283.01 462.82,-278.49 462.82,-278.49 462.82,-278.49 464.96,-283.01 466.89,-276.57 467.11,-287.53 467.11,-287.53"/>
</g>
<!-- palgen.util.cli -->
<g id="node30" class="node">
<title>palgen.util.cli</title>
<polygon fill="chocolate" stroke="chocolate" points="91,-324 0,-324 0,-288 91,-288 91,-324"/>
<text text-anchor="middle" x="45.5" y="-300.95" font-family="Times,serif" font-size="14.00">palgen.util.cli</text>
</g>
<!-- palgen.cli&#45;&gt;palgen.util.cli -->
<g id="edge7" class="edge">
<title>palgen.cli&#45;&gt;palgen.util.cli</title>
<path fill="none" stroke="black" d="M294.61,-165.31C230.28,-170.29 96.64,-184.28 64.5,-216 48.39,-231.9 44.36,-257.87 43.94,-277.67"/>
<polygon fill="black" stroke="black" points="44.01,-287.65 39.44,-277.68 43.97,-282.65 43.94,-277.65 43.94,-277.65 43.94,-277.65 43.97,-282.65 48.44,-277.62 44.01,-287.65 44.01,-287.65"/>
</g>
<!-- palgen.cli&#45;&gt;palgen.util.log -->
<g id="edge8" class="edge">
<title>palgen.cli&#45;&gt;palgen.util.log</title>
<path fill="none" stroke="black" d="M364.21,-176.79C367.01,-177.88 369.8,-178.96 372.5,-180 400.5,-190.76 431.72,-202.45 457.74,-212.1"/>
<polygon fill="black" stroke="black" points="467.08,-215.56 456.14,-216.31 462.39,-213.82 457.7,-212.09 457.7,-212.09 457.7,-212.09 462.39,-213.82 459.27,-207.87 467.08,-215.56 467.08,-215.56"/>
</g>
<!-- palgen.commands -->
<g id="node4" class="node">
<title>palgen.commands</title>
<polygon fill="antiquewhite" stroke="antiquewhite" points="740.38,-36 624.62,-36 624.62,0 740.38,0 740.38,-36"/>
<text text-anchor="middle" x="682.5" y="-12.95" font-family="Times,serif" font-size="14.00">palgen.commands</text>
</g>
<!-- palgen.commands.info -->
<g id="node5" class="node">
<title>palgen.commands.info</title>
<polygon fill="antiquewhite" stroke="antiquewhite" points="523.12,-180 381.88,-180 381.88,-144 523.12,-144 523.12,-180"/>
<text text-anchor="middle" x="452.5" y="-156.95" font-family="Times,serif" font-size="14.00">palgen.commands.info</text>
</g>
<!-- palgen.commands.info&#45;&gt;palgen.util.log -->
<g id="edge9" class="edge">
<title>palgen.commands.info&#45;&gt;palgen.util.log</title>
<path fill="none" stroke="black" d="M467.83,-180.3C475.33,-188.78 484.51,-199.14 492.73,-208.42"/>
<polygon fill="black" stroke="black" points="499.35,-215.9 489.35,-211.39 496.04,-212.15 492.72,-208.41 492.72,-208.41 492.72,-208.41 496.04,-212.15 496.09,-205.43 499.35,-215.9 499.35,-215.9"/>
</g>
<!-- palgen.commands.manifest -->
<g id="node6" class="node">
<title>palgen.commands.manifest</title>
<polygon fill="antiquewhite" stroke="antiquewhite" points="411.88,-252 245.12,-252 245.12,-216 411.88,-216 411.88,-252"/>
<text text-anchor="middle" x="328.5" y="-228.95" font-family="Times,serif" font-size="14.00">palgen.commands.manifest</text>
</g>
<!-- palgen.commands.manifest&#45;&gt;palgen.palgen -->
<g id="edge10" class="edge">
<title>palgen.commands.manifest&#45;&gt;palgen.palgen</title>
<path fill="none" stroke="black" d="M364.97,-252.48C384.46,-261.83 408.64,-273.43 429.32,-283.34"/>
<polygon fill="black" stroke="black" points="438.25,-287.62 427.28,-287.35 433.74,-285.46 429.23,-283.29 429.23,-283.29 429.23,-283.29 433.74,-285.46 431.18,-279.24 438.25,-287.62 438.25,-287.62"/>
</g>
<!-- palgen.ingest -->
<g id="node7" class="node">
<title>palgen.ingest</title>
<polygon fill="aquamarine" stroke="aquamarine" points="846.5,-36 758.5,-36 758.5,0 846.5,0 846.5,-36"/>
<text text-anchor="middle" x="802.5" y="-12.95" font-family="Times,serif" font-size="14.00">palgen.ingest</text>
</g>
<!-- palgen.ingest.filter -->
<g id="node8" class="node">
<title>palgen.ingest.filter</title>
<polygon fill="aquamarine" stroke="aquamarine" points="249.5,-684 131.5,-684 131.5,-648 249.5,-648 249.5,-684"/>
<text text-anchor="middle" x="190.5" y="-660.95" font-family="Times,serif" font-size="14.00">palgen.ingest.filter</text>
</g>
<!-- palgen.ingest.loader -->
<g id="node9" class="node">
<title>palgen.ingest.loader</title>
<polygon fill="aquamarine" stroke="aquamarine" points="455.25,-684 329.75,-684 329.75,-648 455.25,-648 455.25,-684"/>
<text text-anchor="middle" x="392.5" y="-660.95" font-family="Times,serif" font-size="14.00">palgen.ingest.loader</text>
</g>
<!-- palgen.integrations -->
<g id="node10" class="node">
<title>palgen.integrations</title>
<polygon fill="burlywood" stroke="burlywood" points="984.25,-36 864.75,-36 864.75,0 984.25,0 984.25,-36"/>
<text text-anchor="middle" x="924.5" y="-12.95" font-family="Times,serif" font-size="14.00">palgen.integrations</text>
</g>
<!-- palgen.integrations.cmake -->
<g id="node11" class="node">
<title>palgen.integrations.cmake</title>
<polygon fill="burlywood" stroke="burlywood" points="1161.12,-36 1001.88,-36 1001.88,0 1161.12,0 1161.12,-36"/>
<text text-anchor="middle" x="1081.5" y="-12.95" font-family="Times,serif" font-size="14.00">palgen.integrations.cmake</text>
</g>
<!-- palgen.integrations.cmake.cli -->
<g id="node12" class="node">
<title>palgen.integrations.cmake.cli</title>
<polygon fill="burlywood" stroke="burlywood" points="599.75,-540 423.25,-540 423.25,-504 599.75,-504 599.75,-540"/>
<text text-anchor="middle" x="511.5" y="-516.95" font-family="Times,serif" font-size="14.00">palgen.integrations.cmake.cli</text>
</g>
<!-- palgen.schemas.project -->
<g id="node26" class="node">
<title>palgen.schemas.project</title>
<polygon fill="chartreuse" stroke="chartreuse" points="604.25,-612 460.75,-612 460.75,-576 604.25,-576 604.25,-612"/>
<text text-anchor="middle" x="532.5" y="-588.95" font-family="Times,serif" font-size="14.00">palgen.schemas.project</text>
</g>
<!-- palgen.integrations.cmake.cli&#45;&gt;palgen.schemas.project -->
<g id="edge11" class="edge">
<title>palgen.integrations.cmake.cli&#45;&gt;palgen.schemas.project</title>
<path fill="none" stroke="black" d="M516.69,-540.3C519.06,-548.19 521.91,-557.7 524.54,-566.45"/>
<polygon fill="black" stroke="black" points="527.37,-575.9 520.18,-567.61 525.93,-571.11 524.5,-566.32 524.5,-566.32 524.5,-566.32 525.93,-571.11 528.81,-565.02 527.37,-575.9 527.37,-575.9"/>
</g>
<!-- palgen.integrations.conan -->
<g id="node13" class="node">
<title>palgen.integrations.conan</title>
<polygon fill="burlywood" stroke="burlywood" points="382.25,-324 226.75,-324 226.75,-288 382.25,-288 382.25,-324"/>
<text text-anchor="middle" x="304.5" y="-300.95" font-family="Times,serif" font-size="14.00">palgen.integrations.conan</text>
</g>
<!-- palgen.loaders.manifest -->
<g id="node19" class="node">
<title>palgen.loaders.manifest</title>
<polygon fill="cadetblue" stroke="cadetblue" points="377.38,-396 231.62,-396 231.62,-360 377.38,-360 377.38,-396"/>
<text text-anchor="middle" x="304.5" y="-372.95" font-family="Times,serif" font-size="14.00">palgen.loaders.manifest</text>
</g>
<!-- palgen.integrations.conan&#45;&gt;palgen.loaders.manifest -->
<g id="edge12" class="edge">
<title>palgen.integrations.conan&#45;&gt;palgen.loaders.manifest</title>
<path fill="none" stroke="black" d="M304.5,-324.3C304.5,-332.1 304.5,-341.49 304.5,-350.17"/>
<polygon fill="black" stroke="black" points="304.5,-359.9 300,-349.9 304.5,-354.9 304.5,-349.9 304.5,-349.9 304.5,-349.9 304.5,-354.9 309,-349.9 304.5,-359.9 304.5,-359.9"/>
</g>
<!-- palgen.integrations.conan.cli -->
<g id="node14" class="node">
<title>palgen.integrations.conan.cli</title>
<polygon fill="burlywood" stroke="burlywood" points="1351.88,-36 1179.12,-36 1179.12,0 1351.88,0 1351.88,-36"/>
<text text-anchor="middle" x="1265.5" y="-12.95" font-family="Times,serif" font-size="14.00">palgen.integrations.conan.cli</text>
</g>
<!-- palgen.integrations.jinja2 -->
<g id="node15" class="node">
<title>palgen.integrations.jinja2</title>
<polygon fill="burlywood" stroke="burlywood" points="1523.5,-36 1369.5,-36 1369.5,0 1523.5,0 1523.5,-36"/>
<text text-anchor="middle" x="1446.5" y="-12.95" font-family="Times,serif" font-size="14.00">palgen.integrations.jinja2</text>
</g>
<!-- palgen.integrations.jinja2.template -->
<g id="node16" class="node">
<title>palgen.integrations.jinja2.template</title>
<polygon fill="burlywood" stroke="burlywood" points="1549,-108 1344,-108 1344,-72 1549,-72 1549,-108"/>
<text text-anchor="middle" x="1446.5" y="-84.95" font-family="Times,serif" font-size="14.00">palgen.integrations.jinja2.template</text>
</g>
<!-- palgen.integrations.jinja2&#45;&gt;palgen.integrations.jinja2.template -->
<g id="edge13" class="edge">
<title>palgen.integrations.jinja2&#45;&gt;palgen.integrations.jinja2.template</title>
<path fill="none" stroke="black" d="M1446.5,-36.3C1446.5,-44.1 1446.5,-53.49 1446.5,-62.17"/>
<polygon fill="black" stroke="black" points="1446.5,-71.9 1442,-61.9 1446.5,-66.9 1446.5,-61.9 1446.5,-61.9 1446.5,-61.9 1446.5,-66.9 1451,-61.9 1446.5,-71.9 1446.5,-71.9"/>
</g>
<!-- palgen.loaders -->
<g id="node17" class="node">
<title>palgen.loaders</title>
<polygon fill="cadetblue" stroke="cadetblue" points="138.88,-612 44.12,-612 44.12,-576 138.88,-576 138.88,-612"/>
<text text-anchor="middle" x="91.5" y="-588.95" font-family="Times,serif" font-size="14.00">palgen.loaders</text>
</g>
<!-- palgen.module -->
<g id="node21" class="node">
<title>palgen.module</title>
<polygon fill="aliceblue" stroke="aliceblue" points="443,-612 346,-612 346,-576 443,-576 443,-612"/>
<text text-anchor="middle" x="394.5" y="-588.95" font-family="Times,serif" font-size="14.00">palgen.module</text>
</g>
<!-- palgen.loaders.command&#45;&gt;palgen.module -->
<g id="edge14" class="edge">
<title>palgen.loaders.command&#45;&gt;palgen.module</title>
<path fill="none" stroke="black" d="M145.85,-252.34C139.12,-278.95 127.5,-331.55 127.5,-377 127.5,-377 127.5,-377 127.5,-451 127.5,-497.97 146.18,-512.83 184.5,-540 238.7,-578.43 266.91,-560 335.95,-576.06"/>
<polygon fill="black" stroke="black" points="345.5,-578.44 334.71,-580.39 340.65,-577.23 335.8,-576.02 335.8,-576.02 335.8,-576.02 340.65,-577.23 336.89,-571.66 345.5,-578.44 345.5,-578.44"/>
</g>
<!-- palgen.loaders.command&#45;&gt;palgen.palgen -->
<g id="edge15" class="edge">
<title>palgen.loaders.command&#45;&gt;palgen.palgen</title>
<path fill="none" stroke="black" d="M227.28,-251.59C286.12,-264.3 365.93,-281.54 418.76,-292.96"/>
<polygon fill="black" stroke="black" points="428.3,-295.02 417.57,-297.31 423.41,-293.96 418.52,-292.91 418.52,-292.91 418.52,-292.91 423.41,-293.96 419.48,-288.51 428.3,-295.02 428.3,-295.02"/>
</g>
<!-- palgen.loaders.command&#45;&gt;palgen.util.cli -->
<g id="edge16" class="edge">
<title>palgen.loaders.command&#45;&gt;palgen.util.cli</title>
<path fill="none" stroke="black" d="M124.27,-252.48C110.77,-261.49 94.14,-272.58 79.64,-282.24"/>
<polygon fill="black" stroke="black" points="71.39,-287.74 77.22,-278.45 75.55,-284.97 79.71,-282.19 79.71,-282.19 79.71,-282.19 75.55,-284.97 82.21,-285.94 71.39,-287.74 71.39,-287.74"/>
</g>
<!-- palgen.loaders.manifest&#45;&gt;palgen.loaders -->
<g id="edge17" class="edge">
<title>palgen.loaders.manifest&#45;&gt;palgen.loaders</title>
<path fill="none" stroke="black" d="M287.43,-396.15C249.65,-434.11 158.88,-525.3 115.45,-568.94"/>
<polygon fill="black" stroke="black" points="108.65,-575.77 112.52,-565.51 112.18,-572.22 115.71,-568.68 115.71,-568.68 115.71,-568.68 112.18,-572.22 118.9,-571.85 108.65,-575.77 108.65,-575.77"/>
</g>
<!-- palgen.loaders.python -->
<g id="node20" class="node">
<title>palgen.loaders.python</title>
<polygon fill="cadetblue" stroke="cadetblue" points="329.5,-540 193.5,-540 193.5,-504 329.5,-504 329.5,-540"/>
<text text-anchor="middle" x="261.5" y="-516.95" font-family="Times,serif" font-size="14.00">palgen.loaders.python</text>
</g>
<!-- palgen.loaders.manifest&#45;&gt;palgen.loaders.python -->
<g id="edge18" class="edge">
<title>palgen.loaders.manifest&#45;&gt;palgen.loaders.python</title>
<path fill="none" stroke="black" d="M299.23,-396.41C291.8,-420.92 278.21,-465.81 269.53,-494.48"/>
<polygon fill="black" stroke="black" points="266.68,-503.89 265.27,-493.01 268.13,-499.1 269.58,-494.32 269.58,-494.32 269.58,-494.32 268.13,-499.1 273.89,-495.62 266.68,-503.89 266.68,-503.89"/>
</g>
<!-- palgen.modules -->
<g id="node22" class="node">
<title>palgen.modules</title>
<polygon fill="aliceblue" stroke="aliceblue" points="408.62,-468 306.38,-468 306.38,-432 408.62,-432 408.62,-468"/>
<text text-anchor="middle" x="357.5" y="-444.95" font-family="Times,serif" font-size="14.00">palgen.modules</text>
</g>
<!-- palgen.loaders.manifest&#45;&gt;palgen.modules -->
<g id="edge19" class="edge">
<title>palgen.loaders.manifest&#45;&gt;palgen.modules</title>
<path fill="none" stroke="black" d="M311.69,-396.3C317.23,-404.78 324.88,-415.14 332.41,-424.42"/>
<polygon fill="black" stroke="black" points="338.65,-431.9 328.79,-427.1 335.45,-428.06 332.25,-424.22 332.25,-424.22 332.25,-424.22 335.45,-428.06 335.7,-421.34 338.65,-431.9 338.65,-431.9"/>
</g>
<!-- palgen.loaders.python&#45;&gt;palgen.ingest.filter -->
<g id="edge20" class="edge">
<title>palgen.loaders.python&#45;&gt;palgen.ingest.filter</title>
<path fill="none" stroke="black" d="M222.32,-540.45C208.05,-548.98 193.46,-560.74 185.5,-576 175.53,-595.1 177.89,-619.75 182.11,-638.26"/>
<polygon fill="black" stroke="black" points="184.58,-647.84 177.72,-639.28 183.33,-643 182.08,-638.16 182.08,-638.16 182.08,-638.16 183.33,-643 186.44,-637.03 184.58,-647.84 184.58,-647.84"/>
</g>
<!-- palgen.loaders.python&#45;&gt;palgen.loaders -->
<g id="edge21" class="edge">
<title>palgen.loaders.python&#45;&gt;palgen.loaders</title>
<path fill="none" stroke="black" d="M219.04,-540.48C195.93,-550 167.17,-561.84 142.81,-571.87"/>
<polygon fill="black" stroke="black" points="133.71,-575.62 141.25,-567.65 138.34,-573.71 142.96,-571.81 142.96,-571.81 142.96,-571.81 138.34,-573.71 144.67,-575.97 133.71,-575.62 133.71,-575.62"/>
</g>
<!-- palgen.loaders.python&#45;&gt;palgen.module -->
<g id="edge22" class="edge">
<title>palgen.loaders.python&#45;&gt;palgen.module</title>
<path fill="none" stroke="black" d="M294.72,-540.48C312.39,-549.78 334.28,-561.3 353.05,-571.18"/>
<polygon fill="black" stroke="black" points="361.7,-575.74 350.76,-575.06 357.28,-573.41 352.86,-571.08 352.86,-571.08 352.86,-571.08 357.28,-573.41 354.95,-567.1 361.7,-575.74 361.7,-575.74"/>
</g>
<!-- palgen.loaders.python&#45;&gt;palgen.schemas.project -->
<g id="edge23" class="edge">
<title>palgen.loaders.python&#45;&gt;palgen.schemas.project</title>
<path fill="none" stroke="black" d="M329.19,-540.48C367.57,-550.4 415.73,-562.84 455.54,-573.12"/>
<polygon fill="black" stroke="black" points="465.21,-575.62 454.4,-577.47 460.37,-574.37 455.53,-573.12 455.53,-573.12 455.53,-573.12 460.37,-574.37 456.65,-568.76 465.21,-575.62 465.21,-575.62"/>
</g>
<!-- palgen.util.ast_helper -->
<g id="node29" class="node">
<title>palgen.util.ast_helper</title>
<polygon fill="chocolate" stroke="chocolate" points="328,-612 195,-612 195,-576 328,-576 328,-612"/>
<text text-anchor="middle" x="261.5" y="-588.95" font-family="Times,serif" font-size="14.00">palgen.util.ast_helper</text>
</g>
<!-- palgen.loaders.python&#45;&gt;palgen.util.ast_helper -->
<g id="edge24" class="edge">
<title>palgen.loaders.python&#45;&gt;palgen.util.ast_helper</title>
<path fill="none" stroke="black" d="M261.5,-540.3C261.5,-548.1 261.5,-557.49 261.5,-566.17"/>
<polygon fill="black" stroke="black" points="261.5,-575.9 257,-565.9 261.5,-570.9 261.5,-565.9 261.5,-565.9 261.5,-565.9 261.5,-570.9 266,-565.9 261.5,-575.9 261.5,-575.9"/>
</g>
<!-- palgen.module&#45;&gt;palgen.ingest.filter -->
<g id="edge25" class="edge">
<title>palgen.module&#45;&gt;palgen.ingest.filter</title>
<path fill="none" stroke="black" d="M345.64,-611.77C317.12,-621.55 280.9,-633.98 250.64,-644.36"/>
<polygon fill="black" stroke="black" points="241.45,-647.52 249.45,-640.01 246.18,-645.89 250.91,-644.27 250.91,-644.27 250.91,-644.27 246.18,-645.89 252.37,-648.53 241.45,-647.52 241.45,-647.52"/>
</g>
<!-- palgen.module&#45;&gt;palgen.ingest.loader -->
<g id="edge26" class="edge">
<title>palgen.module&#45;&gt;palgen.ingest.loader</title>
<path fill="none" stroke="black" d="M394.01,-612.3C393.78,-620.1 393.51,-629.49 393.27,-638.17"/>
<polygon fill="black" stroke="black" points="392.99,-647.9 388.78,-637.77 393.13,-642.9 393.27,-637.9 393.27,-637.9 393.27,-637.9 393.13,-642.9 397.77,-638.03 392.99,-647.9 392.99,-647.9"/>
</g>
<!-- palgen.util -->
<g id="node28" class="node">
<title>palgen.util</title>
<polygon fill="chocolate" stroke="chocolate" points="338.38,-756 264.62,-756 264.62,-720 338.38,-720 338.38,-756"/>
<text text-anchor="middle" x="301.5" y="-732.95" font-family="Times,serif" font-size="14.00">palgen.util</text>
</g>
<!-- palgen.module&#45;&gt;palgen.util -->
<g id="edge27" class="edge">
<title>palgen.module&#45;&gt;palgen.util</title>
<path fill="none" stroke="black" d="M359.8,-612.39C345.57,-621.2 330.2,-633.19 320.5,-648 308.51,-666.32 303.93,-690.88 302.25,-709.56"/>
<polygon fill="black" stroke="black" points="301.58,-719.52 297.77,-709.24 301.92,-714.54 302.26,-709.55 302.26,-709.55 302.26,-709.55 301.92,-714.54 306.75,-709.85 301.58,-719.52 301.58,-719.52"/>
</g>
<!-- palgen.util.filesystem -->
<g id="node31" class="node">
<title>palgen.util.filesystem</title>
<polygon fill="chocolate" stroke="chocolate" points="743.38,-684 609.62,-684 609.62,-648 743.38,-648 743.38,-684"/>
<text text-anchor="middle" x="676.5" y="-660.95" font-family="Times,serif" font-size="14.00">palgen.util.filesystem</text>
</g>
<!-- palgen.module&#45;&gt;palgen.util.filesystem -->
<g id="edge28" class="edge">
<title>palgen.module&#45;&gt;palgen.util.filesystem</title>
<path fill="none" stroke="black" d="M443.26,-609.75C446.05,-610.53 448.81,-611.28 451.5,-612 479.21,-619.39 546.11,-635.05 599.8,-647.44"/>
<polygon fill="black" stroke="black" points="609.32,-649.63 598.56,-651.77 604.44,-648.51 599.57,-647.38 599.57,-647.38 599.57,-647.38 604.44,-648.51 600.58,-643 609.32,-649.63 609.32,-649.63"/>
</g>
<!-- palgen.util.schema -->
<g id="node34" class="node">
<title>palgen.util.schema</title>
<polygon fill="chocolate" stroke="chocolate" points="591.88,-684 473.12,-684 473.12,-648 591.88,-648 591.88,-684"/>
<text text-anchor="middle" x="532.5" y="-660.95" font-family="Times,serif" font-size="14.00">palgen.util.schema</text>
</g>
<!-- palgen.module&#45;&gt;palgen.util.schema -->
<g id="edge29" class="edge">
<title>palgen.module&#45;&gt;palgen.util.schema</title>
<path fill="none" stroke="black" d="M428.97,-612.48C447.38,-621.82 470.22,-633.41 489.76,-643.32"/>
<polygon fill="black" stroke="black" points="498.47,-647.74 487.52,-647.23 494.01,-645.48 489.55,-643.22 489.55,-643.22 489.55,-643.22 494.01,-645.48 491.59,-639.2 498.47,-647.74 498.47,-647.74"/>
</g>
<!-- palgen.modules&#45;&gt;palgen.loaders.manifest -->
<g id="edge30" class="edge">
<title>palgen.modules&#45;&gt;palgen.loaders.manifest</title>
<path fill="none" stroke="black" d="M350.44,-431.9C344.93,-423.45 337.3,-413.1 329.77,-403.8"/>
<polygon fill="black" stroke="black" points="323.52,-396.3 333.38,-401.1 326.72,-400.14 329.92,-403.98 329.92,-403.98 329.92,-403.98 326.72,-400.14 326.46,-406.87 323.52,-396.3 323.52,-396.3"/>
</g>
<!-- palgen.modules&#45;&gt;palgen.loaders.python -->
<g id="edge31" class="edge">
<title>palgen.modules&#45;&gt;palgen.loaders.python</title>
<path fill="none" stroke="black" d="M333.77,-468.3C321.54,-477.22 306.45,-488.22 293.24,-497.86"/>
<polygon fill="black" stroke="black" points="285.29,-503.65 290.72,-494.13 289.33,-500.71 293.37,-497.76 293.37,-497.76 293.37,-497.76 289.33,-500.71 296.02,-501.4 285.29,-503.65 285.29,-503.65"/>
</g>
<!-- palgen.modules&#45;&gt;palgen.module -->
<g id="edge32" class="edge">
<title>palgen.modules&#45;&gt;palgen.module</title>
<path fill="none" stroke="black" d="M362.04,-468.41C368.42,-492.92 380.12,-537.81 387.59,-566.48"/>
<polygon fill="black" stroke="black" points="390.04,-575.89 383.17,-567.35 388.78,-571.05 387.52,-566.21 387.52,-566.21 387.52,-566.21 388.78,-571.05 391.87,-565.08 390.04,-575.89 390.04,-575.89"/>
</g>
<!-- palgen.schemas.palgen -->
<g id="node25" class="node">
<title>palgen.schemas.palgen</title>
<polygon fill="chartreuse" stroke="chartreuse" points="759.5,-540 617.5,-540 617.5,-504 759.5,-504 759.5,-540"/>
<text text-anchor="middle" x="688.5" y="-516.95" font-family="Times,serif" font-size="14.00">palgen.schemas.palgen</text>
</g>
<!-- palgen.modules&#45;&gt;palgen.schemas.palgen -->
<g id="edge33" class="edge">
<title>palgen.modules&#45;&gt;palgen.schemas.palgen</title>
<path fill="none" stroke="black" d="M408.94,-461.84C457.6,-472.1 532.95,-488 607.8,-503.85"/>
<polygon fill="black" stroke="black" points="617.4,-505.89 606.69,-508.22 612.51,-504.85 607.62,-503.81 607.62,-503.81 607.62,-503.81 612.51,-504.85 608.55,-499.41 617.4,-505.89 617.4,-505.89"/>
</g>
<!-- palgen.modules&#45;&gt;palgen.schemas.project -->
<g id="edge34" class="edge">
<title>palgen.modules&#45;&gt;palgen.schemas.project</title>
<path fill="none" stroke="black" d="M364.8,-468.18C373.9,-487.83 391.16,-519.87 414.5,-540 429.78,-553.17 448.86,-563.63 467.2,-571.65"/>
<polygon fill="black" stroke="black" points="476.41,-575.51 465.44,-575.79 471.8,-573.58 467.18,-571.64 467.18,-571.64 467.18,-571.64 471.8,-573.58 468.92,-567.49 476.41,-575.51 476.41,-575.51"/>
</g>
<!-- palgen.palgen&#45;&gt;palgen.loaders.manifest -->
<g id="edge35" class="edge">
<title>palgen.palgen&#45;&gt;palgen.loaders.manifest</title>
<path fill="none" stroke="black" d="M432.04,-324.48C408.93,-334 380.17,-345.84 355.81,-355.87"/>
<polygon fill="black" stroke="black" points="346.71,-359.62 354.25,-351.65 351.34,-357.71 355.96,-355.81 355.96,-355.81 355.96,-355.81 351.34,-357.71 357.67,-359.97 346.71,-359.62 346.71,-359.62"/>
</g>
<!-- palgen.palgen&#45;&gt;palgen.modules -->
<g id="edge36" class="edge">
<title>palgen.palgen&#45;&gt;palgen.modules</title>
<path fill="none" stroke="black" d="M502.14,-324.46C513.83,-333.49 526.17,-345.65 532.5,-360 538.95,-374.64 542.03,-383.15 532.5,-396 506.52,-431.02 458.04,-443.72 418.68,-447.96"/>
<polygon fill="black" stroke="black" points="408.89,-448.87 418.43,-443.47 413.87,-448.41 418.85,-447.95 418.85,-447.95 418.85,-447.95 413.87,-448.41 419.26,-452.43 408.89,-448.87 408.89,-448.87"/>
</g>
<!-- palgen.palgen&#45;&gt;palgen.schemas.palgen -->
<g id="edge37" class="edge">
<title>palgen.palgen&#45;&gt;palgen.schemas.palgen</title>
<path fill="none" stroke="black" d="M502.85,-324.3C517.71,-333.97 535.83,-346.72 550.5,-360 598.31,-403.27 645.3,-462.7 670.21,-495.92"/>
<polygon fill="black" stroke="black" points="676.05,-503.77 666.47,-498.44 673.07,-499.76 670.08,-495.75 670.08,-495.75 670.08,-495.75 673.07,-499.76 673.69,-493.06 676.05,-503.77 676.05,-503.77"/>
</g>
<!-- palgen.palgen&#45;&gt;palgen.schemas.project -->
<g id="edge38" class="edge">
<title>palgen.palgen&#45;&gt;palgen.schemas.project</title>
<path fill="none" stroke="black" d="M520.79,-321.4C590.38,-345.92 719.06,-403.19 768.5,-504 800.14,-568.51 694.27,-586.89 614.17,-591.77"/>
<polygon fill="black" stroke="black" points="604.54,-592.3 614.27,-587.25 609.53,-592.02 614.52,-591.75 614.52,-591.75 614.52,-591.75 609.53,-592.02 614.77,-596.24 604.54,-592.3 604.54,-592.3"/>
</g>
<!-- palgen.schemas.root -->
<g id="node27" class="node">
<title>palgen.schemas.root</title>
<polygon fill="chartreuse" stroke="chartreuse" points="523.38,-396 395.62,-396 395.62,-360 523.38,-360 523.38,-396"/>
<text text-anchor="middle" x="459.5" y="-372.95" font-family="Times,serif" font-size="14.00">palgen.schemas.root</text>
</g>
<!-- palgen.palgen&#45;&gt;palgen.schemas.root -->
<g id="edge39" class="edge">
<title>palgen.palgen&#45;&gt;palgen.schemas.root</title>
<path fill="none" stroke="black" d="M470.79,-324.3C469.12,-332.1 467.11,-341.49 465.25,-350.17"/>
<polygon fill="black" stroke="black" points="463.17,-359.9 460.86,-349.17 464.21,-355.01 465.26,-350.12 465.26,-350.12 465.26,-350.12 464.21,-355.01 469.66,-351.06 463.17,-359.9 463.17,-359.9"/>
</g>
<!-- palgen.palgen&#45;&gt;palgen.util.filesystem -->
<g id="edge40" class="edge">
<title>palgen.palgen&#45;&gt;palgen.util.filesystem</title>
<path fill="none" stroke="black" d="M520.75,-315.61C616.06,-334.69 825.5,-384 825.5,-449 825.5,-449 825.5,-449 825.5,-523 825.5,-579.33 769,-620.13 725.59,-643.17"/>
<polygon fill="black" stroke="black" points="716.82,-647.68 723.66,-639.1 721.27,-645.39 725.71,-643.1 725.71,-643.1 725.71,-643.1 721.27,-645.39 727.77,-647.1 716.82,-647.68 716.82,-647.68"/>
</g>
<!-- palgen.schemas -->
<g id="node24" class="node">
<title>palgen.schemas</title>
<polygon fill="chartreuse" stroke="chartreuse" points="1643.62,-36 1541.38,-36 1541.38,0 1643.62,0 1643.62,-36"/>
<text text-anchor="middle" x="1592.5" y="-12.95" font-family="Times,serif" font-size="14.00">palgen.schemas</text>
</g>
<!-- palgen.schemas.project&#45;&gt;palgen.util.schema -->
<g id="edge41" class="edge">
<title>palgen.schemas.project&#45;&gt;palgen.util.schema</title>
<path fill="none" stroke="black" d="M532.5,-612.3C532.5,-620.1 532.5,-629.49 532.5,-638.17"/>
<polygon fill="black" stroke="black" points="532.5,-647.9 528,-637.9 532.5,-642.9 532.5,-637.9 532.5,-637.9 532.5,-637.9 532.5,-642.9 537,-637.9 532.5,-647.9 532.5,-647.9"/>
</g>
<!-- palgen.util.pipeline -->
<g id="node33" class="node">
<title>palgen.util.pipeline</title>
<polygon fill="chocolate" stroke="chocolate" points="362,-828 241,-828 241,-792 362,-792 362,-828"/>
<text text-anchor="middle" x="301.5" y="-804.95" font-family="Times,serif" font-size="14.00">palgen.util.pipeline</text>
</g>
<!-- palgen.util&#45;&gt;palgen.util.pipeline -->
<g id="edge42" class="edge">
<title>palgen.util&#45;&gt;palgen.util.pipeline</title>
<path fill="none" stroke="black" d="M301.5,-756.3C301.5,-764.1 301.5,-773.49 301.5,-782.17"/>
<polygon fill="black" stroke="black" points="301.5,-791.9 297,-781.9 301.5,-786.9 301.5,-781.9 301.5,-781.9 301.5,-781.9 301.5,-786.9 306,-781.9 301.5,-791.9 301.5,-791.9"/>
</g>
<!-- palgen.util.cli&#45;&gt;palgen.util -->
<g id="edge43" class="edge">
<title>palgen.util.cli&#45;&gt;palgen.util</title>
<path fill="none" stroke="black" d="M39.63,-324.26C31.16,-350.75 16.5,-403.21 16.5,-449 16.5,-449 16.5,-449 16.5,-595 16.5,-699.97 173.29,-727.34 254.28,-734.48"/>
<polygon fill="black" stroke="black" points="264.24,-735.29 253.91,-738.97 259.26,-734.89 254.27,-734.48 254.27,-734.48 254.27,-734.48 259.26,-734.89 254.64,-730 264.24,-735.29 264.24,-735.29"/>
</g>
<!-- palgen.util.filesystem&#45;&gt;palgen.util -->
<g id="edge44" class="edge">
<title>palgen.util.filesystem&#45;&gt;palgen.util</title>
<path fill="none" stroke="black" d="M609.4,-682.18C606.39,-682.81 603.42,-683.42 600.5,-684 511.57,-701.82 407.12,-719.63 348.18,-729.39"/>
<polygon fill="black" stroke="black" points="338.42,-731 347.56,-724.93 343.36,-730.19 348.29,-729.37 348.29,-729.37 348.29,-729.37 343.36,-730.19 349.02,-733.81 338.42,-731 338.42,-731"/>
</g>
<!-- palgen.util.template -->
<g id="node35" class="node">
<title>palgen.util.template</title>
<polygon fill="chocolate" stroke="chocolate" points="1786.88,-36 1662.12,-36 1662.12,0 1786.88,0 1786.88,-36"/>
<text text-anchor="middle" x="1724.5" y="-12.95" font-family="Times,serif" font-size="14.00">palgen.util.template</text>
</g>
<!-- palgen.util.transformations -->
<g id="node36" class="node">
<title>palgen.util.transformations</title>
<polygon fill="chocolate" stroke="chocolate" points="1968,-36 1805,-36 1805,0 1968,0 1968,-36"/>
<text text-anchor="middle" x="1886.5" y="-12.95" font-family="Times,serif" font-size="14.00">palgen.util.transformations</text>
</g>
</g>
</svg>
